<svg width="24" height="24" viewBox="0 0 24 24" fill="none" xmlns="http://www.w3.org/2000/svg">
<g>
<path fill-rule="evenodd" clip-rule="evenodd" d="M11.8804 0C6.83261 0 2.75 3.756 2.75 8.4C2.75 14.7 11.8804 24 11.8804 24C11.8804 24 21.0109 14.7 21.0109 8.4C21.0109 3.756 16.9283 0 11.8804 0ZM5.36 8.3999C5.36 5.0879 8.28174 2.3999 11.8817 2.3999C15.4817 2.3999 18.4035 5.0879 18.4035 8.3999C18.4035 11.8559 14.647 17.0279 11.8817 20.2559C9.1687 17.0519 5.36 11.8199 5.36 8.3999ZM7.88 8.3999C7.88 6.19076 9.67087 4.3999 11.88 4.3999C13.3091 4.3999 14.6296 5.1623 15.3441 6.3999C16.0586 7.63751 16.0586 9.1623 15.3441 10.3999C14.6296 11.6375 13.3091 12.3999 11.88 12.3999C9.67087 12.3999 7.88 10.609 7.88 8.3999Z" fill="#383F43"/>
</g>
</svg>
